<?xml version="1.0" encoding="utf-8"?>
<svg xmlns="http://www.w3.org/2000/svg" viewBox="0 0 500 500">
  <g transform="matrix(0.1, 0, 0, -0.1, -116.74427, 572.958435)" fill="#000000" stroke="none">
    <path d="M3214 5560 c-811 -123 -1503 -677 -1802 -1441 -52 -133 -97 -292 -125 -444 -19 -105 -22 -154 -22 -385 0 -298 13 -396 80 -630 175 -610 590 -1114 1157 -1409 529 -275 1156 -331 1728 -152 158 49 205 68 354 143 552 276 975 776 1160 1369 72 232 100 422 100 679 0 223 -17 360 -69 565 -65 256 -166 483 -304 691 -380 569 -946 925 -1619 1018 -159 22 -478 20 -638 -4z m560 -225 c72 -9 169 -24 217 -35 244 -53 531 -180 738 -325 128 -90 323 -271 418 -389 492 -609 600 -1439 279 -2146 -104 -227 -242 -426 -421 -606 -547 -549 -1353 -741 -2095 -500 -297 96 -587 274 -809 496 -755 755 -815 1940 -140 2765 439 537 1133 820 1813 740z" style="fill: rgb(0, 14, 255);"/>
    <path d="M3974 4728 c-70 -61 -65 -88 26 -154 l49 -35 -20 -52 c-11 -31 -35 -66 -58 -87 -53 -48 -201 -112 -395 -172 -204 -62 -305 -112 -390 -190 -76 -69 -169 -203 -211 -303 -28 -67 -30 -77 -29 -210 1 -151 7 -181 88 -410 52 -148 67 -231 68 -385 1 -153 -12 -220 -67 -357 -44 -110 -166 -324 -239 -422 -84 -112 -75 -133 21 -53 194 162 345 396 389 604 21 94 20 403 -1 527 -8 47 -16 124 -17 171 l-3 85 102 0 c135 0 138 -3 137 -128 0 -70 -7 -113 -27 -180 -25 -82 -26 -90 -12 -117 20 -38 106 -107 171 -136 53 -24 88 -59 144 -148 19 -30 58 -78 87 -107 29 -29 53 -57 53 -61 0 -4 5 -8 10 -8 6 0 10 22 10 49 0 37 -10 70 -40 133 -34 71 -54 96 -136 174 l-97 91 5 129 5 129 57 110 c46 89 60 130 77 215 13 66 18 121 14 148 -8 52 8 81 63 116 38 24 107 92 197 196 27 30 52 57 57 59 21 8 78 -34 87 -64 16 -53 21 -95 11 -95 -6 0 -10 -4 -10 -10 0 -18 18 -10 54 24 31 29 36 40 36 80 0 41 -5 52 -50 101 -27 30 -50 60 -50 66 0 6 11 34 26 62 14 28 33 92 43 141 10 50 24 101 32 114 13 21 147 112 164 112 4 0 27 12 51 28 37 23 44 32 44 59 0 17 -6 35 -12 40 -19 12 -183 32 -270 32 -84 1 -88 3 -131 70 -33 51 -69 57 -113 19z"/>
  </g>
</svg>